<?xml version="1.0" encoding="UTF-8" standalone="no"?>
<!-- Created with Inkscape (http://www.inkscape.org/) -->

<svg
   xmlns:dc="http://purl.org/dc/elements/1.1/"
   xmlns:cc="http://creativecommons.org/ns#"
   xmlns:rdf="http://www.w3.org/1999/02/22-rdf-syntax-ns#"
   xmlns:svg="http://www.w3.org/2000/svg"
   xmlns="http://www.w3.org/2000/svg"
   xmlns:sodipodi="http://sodipodi.sourceforge.net/DTD/sodipodi-0.dtd"
   xmlns:inkscape="http://www.inkscape.org/namespaces/inkscape"
   width="48"
   height="48"
   id="svg5921"
   version="1.1"
   inkscape:version="0.48.4 r9939"
   sodipodi:docname="in.svg">
  <defs
     id="defs5923" />
  <sodipodi:namedview
     id="base"
     pagecolor="#ffffff"
     bordercolor="#666666"
     borderopacity="1.0"
     inkscape:pageopacity="0.0"
     inkscape:pageshadow="2"
     inkscape:zoom="1.4"
     inkscape:cx="20.930238"
     inkscape:cy="62.636385"
     inkscape:document-units="px"
     inkscape:current-layer="layer1"
     showgrid="false"
     inkscape:snap-bbox="true"
     inkscape:snap-page="true"
     inkscape:window-width="960"
     inkscape:window-height="1028"
     inkscape:window-x="0"
     inkscape:window-y="24"
     inkscape:window-maximized="0" />
  <metadata
     id="metadata5926">
    <rdf:RDF>
      <cc:Work
         rdf:about="">
        <dc:format>image/svg+xml</dc:format>
        <dc:type
           rdf:resource="http://purl.org/dc/dcmitype/StillImage" />
        <dc:title></dc:title>
      </cc:Work>
    </rdf:RDF>
  </metadata>
  <g
     inkscape:label="Layer 1"
     inkscape:groupmode="layer"
     id="layer1"
     transform="translate(0,-1004.3622)">
    <g
       id="g4524"
       transform="translate(-501.0005,-1266.1473)">
      <path
         style="fill:#ffffff"
         inkscape:connector-curvature="0"
         id="path4526"
         d="m 532.939,2299.666 h 1.288 c 0.346,0 0.625,-0.279 0.625,-0.625 v -4.523 h 4.524 c 0.344,0 0.625,-0.281 0.625,-0.627 v -1.287 c 0,-0.346 -0.281,-0.627 -0.625,-0.627 h -4.524 v -4.523 c 0,-0.344 -0.279,-0.625 -0.625,-0.625 h -1.288 c -0.346,0 -0.627,0.281 -0.627,0.625 v 4.523 h -4.523 c -0.345,0 -0.625,0.281 -0.625,0.627 v 1.287 c 0,0.346 0.28,0.627 0.625,0.627 h 4.523 v 4.523 c 10e-4,0.346 0.282,0.625 0.627,0.625 z" />
      <path
         style="fill:#ffffff"
         inkscape:connector-curvature="0"
         id="path4528"
         d="m 515.121,2307.545 c 1.145,0.291 2.375,0.439 3.652,0.439 1.147,0 2.242,-0.15 3.254,-0.443 3.154,-0.914 5.193,-3.236 5.193,-5.918 0,-2.572 -0.826,-4.111 -3.046,-5.682 -0.951,-0.674 -1.816,-1.66 -1.831,-1.965 0,-0.553 0.049,-0.816 1.289,-1.783 1.603,-1.254 2.486,-2.904 2.486,-4.648 0,-1.58 -0.483,-2.984 -1.307,-3.971 h 0.638 c 0.133,0 0.262,-0.041 0.368,-0.117 l 1.779,-1.289 c 0.221,-0.158 0.313,-0.441 0.229,-0.699 -0.084,-0.258 -0.324,-0.434 -0.596,-0.434 h -7.957 c -0.871,0 -1.756,0.152 -2.624,0.451 -2.9,1 -4.928,3.471 -4.928,6.01 0,3.592 2.784,6.316 6.506,6.402 -0.072,0.285 -0.108,0.566 -0.108,0.842 0,0.553 0.141,1.078 0.429,1.584 -0.034,0 -0.065,0 -0.103,0 -3.548,0 -6.75,1.74 -7.966,4.332 -0.317,0.672 -0.478,1.354 -0.478,2.025 0,0.654 0.168,1.283 0.496,1.875 0.768,1.368 2.408,2.428 4.625,2.987 z m 0.709,-20.147 c -0.173,-1.316 0.104,-2.498 0.76,-3.246 0.423,-0.484 0.978,-0.738 1.6,-0.738 l 0.071,0 c 1.759,0.051 3.44,2.01 3.751,4.367 0.174,1.32 -0.119,2.561 -0.783,3.318 -0.424,0.484 -0.971,0.738 -1.619,0.738 0,0 0,0 -0.002,0 h -0.027 c -1.724,-0.05 -3.442,-2.087 -3.751,-4.441 z m 3.381,10.918 0.071,0 c 0.59,0.01 1.165,0.094 1.708,0.26 0.185,0.127 0.365,0.25 0.538,0.367 1.255,0.855 2.083,1.42 2.314,2.326 0.054,0.227 0.081,0.455 0.081,0.676 0,2.33 -1.738,3.512 -5.166,3.512 -2.6,0 -4.634,-1.594 -4.634,-3.629 10e-4,-1.871 2.379,-3.514 5.088,-3.514 z" />
    </g>
  </g>
</svg>
