<?xml version="1.0" encoding="UTF-8" standalone="no"?>
<!-- Created with Inkscape (http://www.inkscape.org/) -->

<svg
   xmlns:dc="http://purl.org/dc/elements/1.1/"
   xmlns:cc="http://creativecommons.org/ns#"
   xmlns:rdf="http://www.w3.org/1999/02/22-rdf-syntax-ns#"
   xmlns:svg="http://www.w3.org/2000/svg"
   xmlns="http://www.w3.org/2000/svg"
   xmlns:sodipodi="http://sodipodi.sourceforge.net/DTD/sodipodi-0.dtd"
   xmlns:inkscape="http://www.inkscape.org/namespaces/inkscape"
   width="48"
   height="48"
   id="svg5921"
   version="1.1"
   inkscape:version="0.48.4 r9939"
   sodipodi:docname="twitter.svg">
  <defs
     id="defs5923" />
  <sodipodi:namedview
     id="base"
     pagecolor="#ffffff"
     bordercolor="#666666"
     borderopacity="1.0"
     inkscape:pageopacity="0.0"
     inkscape:pageshadow="2"
     inkscape:zoom="1.4"
     inkscape:cx="20.930238"
     inkscape:cy="62.636385"
     inkscape:document-units="px"
     inkscape:current-layer="layer1"
     showgrid="false"
     inkscape:snap-bbox="true"
     inkscape:snap-page="true"
     inkscape:window-width="960"
     inkscape:window-height="1028"
     inkscape:window-x="0"
     inkscape:window-y="24"
     inkscape:window-maximized="0" />
  <metadata
     id="metadata5926">
    <rdf:RDF>
      <cc:Work
         rdf:about="">
        <dc:format>image/svg+xml</dc:format>
        <dc:type
           rdf:resource="http://purl.org/dc/dcmitype/StillImage" />
        <dc:title></dc:title>
      </cc:Work>
    </rdf:RDF>
  </metadata>
  <g
     inkscape:label="Layer 1"
     inkscape:groupmode="layer"
     id="layer1"
     transform="translate(0,-1004.3622)">
    <g
       id="g4418"
       transform="translate(-1019.182,-1179.2518)">
      <rect
         style="fill:#ffffff"
         id="rect4420"
         height="20.004"
         width="6.2199998"
         y="2202.584"
         x="1028.676" />
      <path
         style="fill:#ffffff"
         inkscape:connector-curvature="0"
         id="path4422"
         d="m 1031.786,2199.85 c 1.987,0 3.603,-1.617 3.603,-3.607 0,-1.988 -1.615,-3.604 -3.603,-3.604 -1.993,0 -3.604,1.615 -3.604,3.604 0,1.989 1.611,3.607 3.604,3.607 z" />
      <path
         style="fill:#ffffff"
         inkscape:connector-curvature="0"
         id="path4424"
         d="m 1058.182,2211.615 c 0,-5.387 -1.163,-9.529 -7.454,-9.529 -3.023,0 -5.054,1.658 -5.884,3.23 h -0.085 v -2.732 h -5.964 v 20.004 h 6.216 v -9.896 c 0,-2.609 0.493,-5.137 3.729,-5.137 3.186,0 3.231,2.984 3.231,5.305 v 9.729 h 6.211 v -10.974 z" />
    </g>
  </g>
</svg>
