<?xml version="1.0" encoding="UTF-8" standalone="no"?>
<!-- Created with Inkscape (http://www.inkscape.org/) -->

<svg
   xmlns:dc="http://purl.org/dc/elements/1.1/"
   xmlns:cc="http://creativecommons.org/ns#"
   xmlns:rdf="http://www.w3.org/1999/02/22-rdf-syntax-ns#"
   xmlns:svg="http://www.w3.org/2000/svg"
   xmlns="http://www.w3.org/2000/svg"
   xmlns:sodipodi="http://sodipodi.sourceforge.net/DTD/sodipodi-0.dtd"
   xmlns:inkscape="http://www.inkscape.org/namespaces/inkscape"
   width="48"
   height="48"
   id="svg5921"
   version="1.1"
   inkscape:version="0.48.4 r9939"
   sodipodi:docname="fb.svg">
  <defs
     id="defs5923" />
  <sodipodi:namedview
     id="base"
     pagecolor="#ffffff"
     bordercolor="#666666"
     borderopacity="1.0"
     inkscape:pageopacity="0.0"
     inkscape:pageshadow="2"
     inkscape:zoom="1.4"
     inkscape:cx="20.930238"
     inkscape:cy="62.636385"
     inkscape:document-units="px"
     inkscape:current-layer="layer1"
     showgrid="false"
     inkscape:snap-bbox="true"
     inkscape:snap-page="true"
     inkscape:window-width="960"
     inkscape:window-height="1028"
     inkscape:window-x="0"
     inkscape:window-y="24"
     inkscape:window-maximized="0" />
  <metadata
     id="metadata5926">
    <rdf:RDF>
      <cc:Work
         rdf:about="">
        <dc:format>image/svg+xml</dc:format>
        <dc:type
           rdf:resource="http://purl.org/dc/dcmitype/StillImage" />
        <dc:title></dc:title>
      </cc:Work>
    </rdf:RDF>
  </metadata>
  <g
     inkscape:label="Layer 1"
     inkscape:groupmode="layer"
     id="layer1"
     transform="translate(0,-1004.3622)">
    <g
       id="g4266"
       transform="translate(-414.6405,-1179.2498)">
      <path
         style="fill:#ffffff"
         inkscape:connector-curvature="0"
         id="path4268"
         d="m 452.813,2195.871 c -1.189,0.705 -2.508,1.219 -3.91,1.494 -1.121,-1.195 -2.721,-1.943 -4.492,-1.943 -3.398,0 -6.154,2.756 -6.154,6.154 0,0.482 0.055,0.951 0.158,1.402 -5.115,-0.256 -9.65,-2.707 -12.686,-6.43 -0.53,0.908 -0.834,1.965 -0.834,3.094 0,2.135 1.087,4.02 2.738,5.123 -1.009,-0.033 -1.958,-0.309 -2.788,-0.77 0,0.025 0,0.051 0,0.076 0,2.982 2.121,5.471 4.938,6.037 -0.517,0.141 -1.061,0.215 -1.622,0.215 -0.396,0 -0.782,-0.039 -1.158,-0.109 0.784,2.443 3.057,4.225 5.75,4.273 -2.107,1.65 -4.761,2.635 -7.645,2.635 -0.497,0 -0.986,-0.029 -1.468,-0.086 2.724,1.746 5.959,2.766 9.435,2.766 11.322,0 17.512,-9.379 17.512,-17.512 0,-0.268 -0.004,-0.533 -0.016,-0.797 1.201,-0.867 2.246,-1.951 3.07,-3.188 -1.104,0.49 -2.289,0.82 -3.535,0.969 1.271,-0.758 2.246,-1.965 2.707,-3.403 z" />
    </g>
  </g>
</svg>
