<?xml version="1.0" encoding="utf-8"?>
<!-- Generator: Adobe Illustrator 17.0.0, SVG Export Plug-In . SVG Version: 6.00 Build 0)  -->
<!DOCTYPE svg PUBLIC "-//W3C//DTD SVG 1.1//EN" "http://www.w3.org/Graphics/SVG/1.1/DTD/svg11.dtd">
<svg version="1.1" id="Layer_1" xmlns="http://www.w3.org/2000/svg" xmlns:xlink="http://www.w3.org/1999/xlink" x="0px" y="0px"
	 width="300px" height="120px" viewBox="0 0 300 120" enable-background="new 0 0 300 120" xml:space="preserve">
<g>
	<g>
		<g>
			<g>
				<path fill="#E80F1F" d="M66.866,10.778c0-3.096,0.917-4.586,3.783-4.586c2.867,0,3.784,1.49,3.784,4.586v15.804h7.109V10.606
					C81.543,4.759,78.103,0,70.65,0c-7.452,0-10.893,4.759-10.893,10.606v15.976h7.109V10.778z"/>
				<path fill="#E80F1F" d="M74.434,32.182v5.179c0,3.096-0.917,4.587-3.784,4.587c-2.867,0-3.783-1.491-3.783-4.587v-5.179h-7.109
					v5.35c0,5.848,3.44,10.606,10.893,10.606c7.453,0,10.893-4.758,10.893-10.606v-5.35H74.434z"/>
			</g>
		</g>
		<g>
			<g>
				<path fill="#E80F1F" d="M103.102,32.182v5.179c0,3.096-0.917,4.587-3.784,4.587s-3.783-1.491-3.783-4.587v-5.179h-7.109v5.35
					c0,5.848,3.44,10.606,10.893,10.606c7.453,0,10.893-4.758,10.893-10.606v-5.35H103.102z"/>
				<path fill="#E80F1F" d="M95.535,10.778c0-3.096,0.917-4.586,3.783-4.586s3.784,1.49,3.784,4.586v15.804h7.109V10.606
					C110.211,4.759,106.771,0,99.318,0c-7.452,0-10.893,4.759-10.893,10.606v15.976h7.109V10.778z"/>
			</g>
		</g>
		<g>
			<g>
				<rect x="117.119" y="32.182" fill="#E80F1F" width="6.192" height="15.383"/>
				<polygon fill="#E80F1F" points="129.847,47.565 133.287,47.565 136.342,32.182 126.792,32.182 				"/>
				<polygon fill="#E80F1F" points="146.014,0.573 136.669,0.573 131.624,24.766 131.509,24.766 126.464,0.573 117.119,0.573 
					117.119,26.582 123.311,26.582 123.311,9.632 123.426,9.632 126.792,26.582 136.342,26.582 139.708,9.632 139.822,9.632 
					139.822,26.582 146.014,26.582 				"/>
				<rect x="139.822" y="32.182" fill="#E80F1F" width="6.192" height="15.383"/>
			</g>
		</g>
		<g>
			<g>
				<rect x="153.591" y="0.573" fill="#E80F1F" width="7.109" height="26.009"/>
				<rect x="153.591" y="32.182" fill="#E80F1F" width="7.109" height="15.383"/>
			</g>
		</g>
		<g>
			<g>
				<rect x="168.277" y="32.182" fill="#E80F1F" width="6.421" height="15.383"/>
				<polygon fill="#E80F1F" points="178.482,32.182 183.871,47.565 190.063,47.565 190.063,32.182 				"/>
				<polygon fill="#E80F1F" points="190.063,0.573 183.642,0.573 183.642,24.251 183.528,24.251 174.871,0.573 168.277,0.573 
					168.277,26.582 174.698,26.582 174.698,16.11 174.813,16.11 178.482,26.582 190.063,26.582 				"/>
			</g>
		</g>
		<g>
			<g>
				<path fill="#E80F1F" d="M204.054,10.72c0-3.497,1.433-4.528,3.154-4.528c2.809,0,4.07,1.605,4.07,7.796h6.765v-2.637
					C218.043,5.16,214.488,0,207.379,0c-6.995,0-10.434,4.759-10.434,10.606v15.976h7.109V10.72z"/>
				<path fill="#E80F1F" d="M206.749,26.582v5.599V32.2h4.529v4.014c0,4.127-1.032,5.733-3.899,5.733
					c-2.465,0-3.326-1.72-3.326-4.358v-5.408h-7.109v5.35c0,6.593,3.899,10.606,9.517,10.606c3.326,0,5.046-1.146,7.166-3.669
					l1.319,3.096h3.44V32.182v-5.599H206.749z"/>
			</g>
		</g>
		<g>
			<path d="M41.107,80.437v0.018h4.529v4.014c0,4.127-1.032,5.733-3.899,5.733c-2.465,0-3.326-1.72-3.326-4.358v-5.408V64.575
				c0-3.497,1.433-4.528,3.154-4.528c2.809,0,4.07,1.605,4.07,7.796h6.765v-2.637c0-6.191-3.555-11.351-10.664-11.351
				c-6.995,0-10.434,4.759-10.434,10.606v15.976v5.35c0,6.593,3.899,10.606,9.517,10.606c3.326,0,5.046-1.146,7.166-3.669
				l1.319,3.096h3.44V80.437v-5.599H41.107V80.437z"/>
			<path d="M74.003,54.428h-8.829l-4.791,26.009L57.549,95.82h6.879l1.261-9.173h7.796l1.261,9.173h6.879l-2.834-15.383
				L74.003,54.428z M66.722,80.455l0.003-0.018l2.806-17.753h0.114l2.807,17.753l0.003,0.018H66.722z"/>
			<polygon points="100.721,78.621 100.607,78.621 95.561,54.428 86.217,54.428 86.217,80.437 86.217,95.82 92.409,95.82 
				92.409,80.437 92.409,63.486 92.523,63.486 95.889,80.437 98.945,95.82 102.384,95.82 105.439,80.437 108.805,63.486 
				108.92,63.486 108.92,80.437 108.92,95.82 115.111,95.82 115.111,80.437 115.111,54.428 105.766,54.428 			"/>
			<polygon points="128.093,80.437 128.093,77.475 137.266,77.475 137.266,71.282 128.093,71.282 128.093,60.62 140.019,60.62 
				140.019,54.428 120.984,54.428 120.984,80.437 120.984,95.82 140.821,95.82 140.821,89.628 128.093,89.628 			"/>
			<path d="M165.438,80.437c-3.49-7.214-13.215-10.533-13.215-16.32c0-2.581,1.26-4.07,3.554-4.07c1.605,0,3.497,1.031,3.784,4.586
				l6.764-0.745c-0.631-5.848-4.07-10.033-9.86-10.033c-6.995,0-11.007,3.727-11.007,10.319c0,8.436,7.297,11.977,11.518,16.263
				c1.717,1.744,2.929,3.61,2.929,5.981c0,2.465-1.663,3.784-4.128,3.784c-2.293,0-3.955-2.064-4.242-6.25l-6.765,0.974
				c0.287,6.192,4.07,11.466,10.664,11.466c6.65,0,11.237-3.783,11.237-10.606C166.67,83.772,166.2,82.013,165.438,80.437z"/>
		</g>
		<rect x="225.221" y="26.582" width="43.606" height="5.599"/>
		<rect x="171.649" y="90.221" width="6.741" height="5.599"/>
		<g>
			<path d="M198.216,68.195v-3.199c0-3.486-1.6-4.971-3.427-4.971c-2.857,0-3.771,1.485-3.771,4.569v20.911
				c0,3.085,0.915,4.571,3.771,4.571c2.571,0,3.427-1.486,3.427-4.171v-4.971h7.085v4.743c0,5.826-3.429,10.57-10.512,10.57
				c-7.428,0-10.855-4.743-10.855-10.57V64.424c0-5.828,3.427-10.57,10.855-10.57c7.084,0,10.512,5.141,10.512,11.312v3.029H198.216
				z"/>
			<path d="M211.862,64.424c0-5.828,3.427-10.57,10.855-10.57c7.428,0,10.855,4.741,10.855,10.57v21.254
				c0,5.826-3.427,10.57-10.855,10.57c-7.428,0-10.855-4.743-10.855-10.57V64.424z M218.945,85.506c0,3.085,0.915,4.571,3.771,4.571
				c2.857,0,3.771-1.486,3.771-4.571V64.595c0-3.085-0.915-4.569-3.771-4.569c-2.857,0-3.771,1.485-3.771,4.569V85.506z"/>
		</g>
		<path d="M268.88,54.571V95.82h-6.171V63.597h-0.115l-6.398,32.223h-3.429l-6.398-32.223h-0.115V95.82h-6.169V54.571h9.312
			l5.027,24.109h0.115l5.028-24.109H268.88z"/>
		<g>
			<g>
				<path fill="#E80F1F" d="M38.412,23.391h2.293c2.994,0,4.654,1.079,5.384,3.192h7.212c-0.743-3.217-2.621-5.18-5.372-6.402
					c3.44-1.376,4.931-5.102,4.931-8.657c0-7.051-3.383-10.95-11.007-10.95H31.303v26.009h7.109V23.391z M38.412,6.42h2.695
					c3.153,0,4.644,2.007,4.644,5.848c0,3.44-2.063,5.274-4.758,5.274h-2.58V6.42z"/>
				<path fill="#E80F1F" d="M53.662,32.182h-7.109v3.144h-0.001c0,0.01,0.001,0.018,0.001,0.028c0,4.185-1.376,6.364-5.16,6.364
					h-2.981v-9.536h-7.109v15.383H42.54c8.084,0,11.122-5.16,11.122-11.982c0-0.091-0.012-0.168-0.013-0.257h0.013V32.182z"/>
			</g>
		</g>
	</g>
	<g>
		<path d="M72.431,116.864l2.425-13.329h2.846l2.425,13.329h-2.181l-0.407-2.956h-2.521l-0.407,2.956H72.431z M75.353,111.915h1.852
			l-0.904-5.723h-0.036L75.353,111.915z"/>
		<path d="M84.552,117.044v-1.992h0.475c0.43,0,0.738-0.088,0.923-0.266c0.185-0.177,0.278-0.458,0.278-0.843v-10.409h2.289v10.671
			c0,0.925-0.236,1.629-0.708,2.113c-0.472,0.484-1.305,0.726-2.501,0.726H84.552z"/>
		<path d="M90.618,114.962v-8.029h2.064v7.696c0,0.481,0.246,0.721,0.739,0.721c0.306,0,0.748-0.21,1.325-0.631v-7.786h2.064v9.931
			h-1.947v-1.001c-0.397,0.33-0.665,0.553-0.807,0.667c-0.141,0.114-0.365,0.228-0.671,0.342c-0.306,0.114-0.652,0.172-1.036,0.172
			c-0.541,0-0.964-0.183-1.271-0.55C90.771,116.128,90.618,115.617,90.618,114.962z"/>
		<path d="M98.809,116.864v-9.931h1.955v1c0.654-0.552,1.102-0.886,1.343-1c0.282-0.121,0.597-0.18,0.946-0.18
			c0.49,0,0.851,0.085,1.081,0.257c0.231,0.171,0.469,0.479,0.713,0.923c0.482-0.468,0.891-0.782,1.226-0.941
			c0.335-0.16,0.698-0.239,1.09-0.239c0.637,0,1.119,0.184,1.446,0.554c0.327,0.369,0.491,0.879,0.491,1.527v8.03h-2.064v-7.697
			c0-0.48-0.247-0.721-0.742-0.721c-0.32,0-0.758,0.211-1.312,0.632v7.786h-2.064v-7.697c0-0.48-0.24-0.721-0.721-0.721
			c-0.306,0-0.748,0.211-1.325,0.632v7.786H98.809z"/>
		<path d="M110.75,114.818c0-1.057,0.35-1.926,1.05-2.605c0.7-0.678,1.819-1.312,3.357-1.901v-0.595c0-0.847-0.34-1.271-1.018-1.271
			c-0.445,0-0.747,0.118-0.906,0.352c-0.159,0.234-0.251,0.586-0.275,1.054h-2.064c0.048-0.997,0.368-1.763,0.96-2.298
			c0.591-0.535,1.38-0.802,2.365-0.802c0.974,0,1.717,0.224,2.231,0.671s0.77,1.122,0.77,2.023v6.363
			c0,0.186,0.045,0.537,0.135,1.054h-2.045c-0.012-0.096-0.023-0.231-0.032-0.406c-0.009-0.175-0.013-0.297-0.013-0.37
			c-0.787,0.638-1.592,0.956-2.415,0.956c-0.679,0-1.199-0.204-1.559-0.613C110.931,116.023,110.75,115.484,110.75,114.818z
			 M112.814,114.448c0,0.601,0.321,0.901,0.964,0.901c0.492,0,0.952-0.306,1.379-0.919v-2.604c-0.901,0.517-1.517,0.969-1.847,1.356
			C112.98,113.569,112.814,113.992,112.814,114.448z"/>
		<path d="M123.512,113.637v-6.867c0-0.998,0.288-1.816,0.865-2.456c0.577-0.64,1.409-0.96,2.496-0.96
			c1.093,0,1.939,0.344,2.537,1.032c0.597,0.688,0.896,1.561,0.896,2.618v0.857h-2.181c0-0.962-0.102-1.621-0.306-1.978
			c-0.204-0.358-0.54-0.536-1.009-0.536c-0.679,0-1.015,0.487-1.009,1.46v6.85c0,0.937,0.357,1.402,1.072,1.396
			c0.456,0,0.779-0.141,0.969-0.423c0.189-0.283,0.284-0.757,0.284-1.424v-1.289h-1.46v-1.811h3.749v6.759h-1.109l-0.423-1.001
			c-0.355,0.432-0.699,0.738-1.032,0.915c-0.334,0.177-0.759,0.266-1.275,0.266c-0.913,0-1.653-0.306-2.217-0.919
			C123.794,115.512,123.512,114.683,123.512,113.637z"/>
		<path d="M132.632,116.864v-9.931h1.973v1.162h0.036c0.529-0.901,1.31-1.349,2.343-1.343h0.423v2.163
			c-0.54-0.144-0.982-0.213-1.325-0.207c-0.378,0-0.705,0.117-0.978,0.351c-0.273,0.235-0.41,0.559-0.41,0.974v6.831H132.632z"/>
		<path d="M138.652,113.358v-2.92c0-2.463,1.071-3.694,3.213-3.691c2.142,0.003,3.213,1.234,3.213,3.691v2.92
			c0,2.463-1.071,3.695-3.213,3.695C139.723,117.053,138.652,115.821,138.652,113.358z M140.716,113.734
			c0,1.083,0.383,1.624,1.149,1.624c0.766,0,1.149-0.541,1.149-1.624v-3.664c0-1.083-0.383-1.624-1.149-1.624
			c-0.766,0-1.149,0.541-1.149,1.624V113.734z"/>
		<path d="M146.962,114.962v-8.029h2.064v7.696c0,0.481,0.246,0.721,0.739,0.721c0.306,0,0.748-0.21,1.325-0.631v-7.786h2.064v9.931
			h-1.947v-1.001c-0.397,0.33-0.665,0.553-0.807,0.667c-0.141,0.114-0.365,0.228-0.671,0.342c-0.306,0.114-0.652,0.172-1.036,0.172
			c-0.541,0-0.964-0.183-1.271-0.55C147.115,116.128,146.962,115.617,146.962,114.962z"/>
		<path d="M155.154,120v-13.067h1.955v1.036h0.036c0.355-0.457,0.686-0.773,0.996-0.951c0.309-0.177,0.716-0.266,1.221-0.266
			c0.655,0,1.169,0.239,1.541,0.716c0.373,0.478,0.559,1.161,0.559,2.051v4.759c0,0.883-0.187,1.565-0.563,2.046
			c-0.375,0.481-0.887,0.721-1.536,0.721c-0.283,0-0.551-0.049-0.807-0.145c-0.255-0.095-0.457-0.196-0.603-0.301
			c-0.148-0.105-0.392-0.298-0.735-0.581V120H155.154z M157.217,114.836c0.469,0.342,0.862,0.514,1.181,0.514
			c0.667,0,1.001-0.534,1.001-1.604v-3.695c0-1.069-0.334-1.604-1.001-1.604c-0.318,0-0.712,0.172-1.181,0.514V114.836z"/>
		<path d="M167.545,113.637v-6.867c0-0.998,0.298-1.816,0.896-2.456c0.598-0.64,1.468-0.96,2.609-0.96
			c1.093,0,1.933,0.344,2.519,1.032c0.586,0.688,0.879,1.561,0.879,2.618v0.983h-2.289v-1.036c0-0.529-0.105-0.928-0.315-1.199
			c-0.21-0.271-0.474-0.406-0.793-0.406c-0.445,0-0.759,0.117-0.942,0.351c-0.183,0.235-0.275,0.61-0.275,1.126v6.751
			c0,0.517,0.091,0.891,0.275,1.126c0.183,0.234,0.497,0.351,0.942,0.351c0.408,0,0.695-0.109,0.86-0.329
			c0.166-0.219,0.248-0.556,0.248-1.013v-1.604h2.289v1.532c0,0.998-0.293,1.815-0.879,2.451c-0.586,0.638-1.425,0.956-2.519,0.956
			c-1.142,0-2.011-0.318-2.609-0.956C167.844,115.451,167.545,114.634,167.545,113.637z"/>
		<path d="M176.548,113.358v-2.92c0-2.463,1.071-3.694,3.213-3.691c2.142,0.003,3.213,1.234,3.213,3.691v2.92
			c0,2.463-1.071,3.695-3.213,3.695C177.619,117.053,176.548,115.821,176.548,113.358z M178.612,113.734
			c0,1.083,0.383,1.624,1.149,1.624s1.149-0.541,1.149-1.624v-3.664c0-1.083-0.383-1.624-1.149-1.624s-1.149,0.541-1.149,1.624
			V113.734z"/>
		<path d="M184.859,116.864v-9.931h1.955v1c0.654-0.552,1.101-0.886,1.343-1c0.282-0.121,0.597-0.18,0.946-0.18
			c0.49,0,0.851,0.085,1.081,0.257c0.23,0.171,0.468,0.479,0.714,0.923c0.482-0.468,0.89-0.782,1.226-0.941
			c0.333-0.16,0.696-0.239,1.089-0.239c0.637,0,1.119,0.184,1.446,0.554c0.329,0.369,0.492,0.879,0.492,1.527v8.03h-2.063v-7.697
			c0-0.48-0.248-0.721-0.744-0.721c-0.319,0-0.758,0.211-1.313,0.632v7.786h-2.063v-7.697c0-0.48-0.24-0.721-0.722-0.721
			c-0.305,0-0.748,0.211-1.325,0.632v7.786H184.859z"/>
		<path d="M197.168,120v-13.067h1.955v1.036h0.036c0.355-0.457,0.686-0.773,0.997-0.951c0.309-0.177,0.716-0.266,1.221-0.266
			c0.654,0,1.168,0.239,1.541,0.716c0.373,0.478,0.559,1.161,0.559,2.051v4.759c0,0.883-0.188,1.565-0.563,2.046
			c-0.376,0.481-0.888,0.721-1.537,0.721c-0.283,0-0.551-0.049-0.806-0.145c-0.256-0.095-0.457-0.196-0.604-0.301
			c-0.148-0.105-0.393-0.298-0.735-0.581V120H197.168z M199.232,114.836c0.469,0.342,0.862,0.514,1.181,0.514
			c0.666,0,1-0.534,1-1.604v-3.695c0-1.069-0.333-1.604-1-1.604c-0.319,0-0.712,0.172-1.181,0.514V114.836z"/>
		<path d="M204.991,114.818c0-1.057,0.35-1.926,1.05-2.605c0.7-0.678,1.819-1.312,3.357-1.901v-0.595
			c0-0.847-0.339-1.271-1.018-1.271c-0.444,0-0.746,0.118-0.905,0.352c-0.16,0.234-0.251,0.586-0.275,1.054h-2.064
			c0.048-0.997,0.368-1.763,0.96-2.298c0.591-0.535,1.379-0.802,2.365-0.802c0.974,0,1.717,0.224,2.231,0.671s0.77,1.122,0.77,2.023
			v6.363c0,0.186,0.045,0.537,0.135,1.054h-2.045c-0.013-0.096-0.024-0.231-0.033-0.406s-0.014-0.297-0.014-0.37
			c-0.786,0.638-1.592,0.956-2.415,0.956c-0.679,0-1.199-0.204-1.56-0.613C205.172,116.023,204.991,115.484,204.991,114.818z
			 M207.055,114.448c0,0.601,0.321,0.901,0.965,0.901c0.493,0,0.952-0.306,1.378-0.919v-2.604c-0.9,0.517-1.517,0.969-1.847,1.356
			C207.22,113.569,207.055,113.992,207.055,114.448z"/>
		<path d="M213.553,116.864v-9.931h1.955v1c0.397-0.33,0.663-0.55,0.801-0.662c0.139-0.111,0.362-0.225,0.671-0.342
			c0.309-0.117,0.653-0.176,1.031-0.176c0.538,0,0.962,0.184,1.269,0.554c0.308,0.369,0.463,0.879,0.463,1.527v8.03h-2.065v-7.697
			c0-0.48-0.246-0.721-0.739-0.721c-0.306,0-0.748,0.211-1.325,0.632v7.786H213.553z"/>
		<path d="M220.924,106.933h2.064l1.33,6.353h0.045l1.257-6.353h2.064l-2.587,10.67c-0.22,0.884-0.544,1.5-0.971,1.852
			c-0.426,0.351-1.036,0.528-1.831,0.528h-0.859v-1.695h0.487c0.496,0,0.844-0.129,1.044-0.388c0.201-0.258,0.301-0.663,0.301-1.217
			c0-0.318-0.074-0.757-0.221-1.316L220.924,106.933z"/>
	</g>
	<rect x="31" y="111" width="36" height="2"/>
	<rect x="233" y="111" width="36" height="2"/>
</g>
</svg>
