<?xml version="1.0" encoding="UTF-8" standalone="no"?>
<!-- Created with Inkscape (http://www.inkscape.org/) -->

<svg
   xmlns:dc="http://purl.org/dc/elements/1.1/"
   xmlns:cc="http://creativecommons.org/ns#"
   xmlns:rdf="http://www.w3.org/1999/02/22-rdf-syntax-ns#"
   xmlns:svg="http://www.w3.org/2000/svg"
   xmlns="http://www.w3.org/2000/svg"
   xmlns:sodipodi="http://sodipodi.sourceforge.net/DTD/sodipodi-0.dtd"
   xmlns:inkscape="http://www.inkscape.org/namespaces/inkscape"
   width="200"
   height="80"
   id="svg2"
   version="1.1"
   inkscape:version="0.48.4 r9939"
   sodipodi:docname="drawing.svg">
  <defs
     id="defs4" />
  <sodipodi:namedview
     id="base"
     pagecolor="#ffffff"
     bordercolor="#666666"
     borderopacity="1.0"
     inkscape:pageopacity="0.0"
     inkscape:pageshadow="2"
     inkscape:zoom="1.6597656"
     inkscape:cx="61.894655"
     inkscape:cy="24.995222"
     inkscape:document-units="px"
     inkscape:current-layer="layer1"
     showgrid="false"
     inkscape:window-width="1129"
     inkscape:window-height="734"
     inkscape:window-x="1886"
     inkscape:window-y="164"
     inkscape:window-maximized="0" />
  <metadata
     id="metadata7">
    <rdf:RDF>
      <cc:Work
         rdf:about="">
        <dc:format>image/svg+xml</dc:format>
        <dc:type
           rdf:resource="http://purl.org/dc/dcmitype/StillImage" />
        <dc:title></dc:title>
      </cc:Work>
    </rdf:RDF>
  </metadata>
  <g
     inkscape:label="Layer 1"
     inkscape:groupmode="layer"
     id="layer1"
     transform="translate(0,-972.36218)">
    <g
       id="g3013"
       transform="matrix(0.63248214,0,0,0.63248214,2.5345022,975.33035)">
      <path
         id="path2988"
         d=""
         class="st0"
         inkscape:connector-curvature="0"
         style="fill:none;enable-background:new" />
      <path
         id="path2990"
         d="m 178.2,57.7 v 58.1 H 164.9 L 157,89.4 v 26.4 H 144.3 V 57.7 H 157 l 8.5,26.2 V 57.7 h 12.7 z"
         class="st1"
         inkscape:connector-curvature="0"
         style="fill:#e80f1f" />
      <path
         id="path2992"
         d="m 184.3,57.7 h 25.2 v 11.6 h -10.1 v 11 h 9.5 v 11.1 h -9.5 v 12.8 h 11.1 v 11.6 H 184.2 V 57.7 z"
         class="st1"
         inkscape:connector-curvature="0"
         style="fill:#e80f1f" />
      <path
         id="path2994"
         d="m 271.9,57.7 -6.7,58.1 h -18.9 c -1.7,-8.9 -3.3,-19.1 -4.6,-30.5 -0.6,4.9 -2,15 -4.2,30.5 h -18.8 l -6.8,-58.1 h 14.7 l 1.6,20.3 1.5,19.6 c 0.6,-10.1 2,-23.4 4.2,-39.9 h 15.7 c 0.2,1.7 0.8,8.1 1.7,19.2 L 253,99 c 0.9,-14.1 2.3,-27.8 4.2,-41.3 h 14.7 z"
         class="st1"
         inkscape:connector-curvature="0"
         style="fill:#e80f1f" />
      <path
         id="path2996"
         d="M 307,75.3 H 292.9 V 71 c 0,-2 -0.2,-3.3 -0.5,-3.8 -0.4,-0.6 -1,-0.8 -1.8,-0.8 -0.9,0 -1.6,0.4 -2.1,1.1 -0.5,0.7 -0.7,1.9 -0.7,3.4 0,1.9 0.3,3.4 0.8,4.4 0.5,1 1.9,2.2 4.3,3.6 6.7,4 11,7.3 12.7,9.8 1.7,2.6 2.6,6.7 2.6,12.4 0,4.1 -0.5,7.2 -1.5,9.2 -1,2 -2.8,3.6 -5.6,4.9 -2.8,1.3 -6,2 -9.7,2 -4.1,0 -7.5,-0.8 -10.4,-2.3 -2.9,-1.5 -4.7,-3.5 -5.6,-5.8 -0.9,-2.4 -1.3,-5.7 -1.3,-10.1 v -4 h 14.1 v 7.1 c 0,2.2 0.2,3.6 0.6,4.2 0.4,0.6 1.1,0.9 2.1,0.9 1,0 1.8,-0.4 2.2,-1.2 0.5,-0.8 0.7,-2 0.7,-3.5 0,-3.4 -0.5,-5.7 -1.4,-6.7 -1,-1.1 -3.3,-2.8 -7.1,-5.3 -3.8,-2.5 -6.3,-4.3 -7.5,-5.4 -1.2,-1.1 -2.2,-2.7 -3,-4.7 -0.8,-2 -1.2,-4.5 -1.2,-7.6 0,-4.5 0.6,-7.7 1.7,-9.8 1.1,-2.1 3,-3.7 5.5,-4.8 2.5,-1.2 5.6,-1.7 9.2,-1.7 3.9,0 7.3,0.6 10.1,1.9 2.8,1.3 4.6,2.9 5.5,4.8 0.9,1.9 1.3,5.2 1.3,9.8 v 2.3 z"
         class="st1"
         inkscape:connector-curvature="0"
         style="fill:#e80f1f" />
      <g
         id="g2998">
        <path
           id="path3000"
           d="m 17.7,56.8 h 5.7 c 7.5,0 11.6,2.7 13.4,7.9 h 18 C 52.9,56.7 48.3,51.8 41.4,48.8 50,45.4 53.7,36.1 53.7,27.2 53.7,9.7 45.2,0 26.3,0 H 0 v 64.8 h 17.7 v -8 z m 0,-42.2 h 6.7 c 7.9,0 11.6,5 11.6,14.6 0,8.6 -5.1,13.1 -11.8,13.1 H 17.8 V 14.6 z"
           class="st1"
           inkscape:connector-curvature="0"
           style="fill:#e80f1f" />
        <path
           id="path3002"
           d="M 55.7,78.7 H 38 v 7.8 h 0 c 0,0 0,0 0,0.1 0,10.4 -3.4,15.8 -12.8,15.8 H 17.8 V 78.7 H 0 V 117 h 28 c 20.1,0 27.7,-12.8 27.7,-29.8 0,-0.2 0,-0.4 0,-0.6 h 0 v -7.9 z"
           class="st1"
           inkscape:connector-curvature="0"
           style="fill:#e80f1f" />
      </g>
      <path
         id="path3004"
         d="m 95.4,73.1 0,0 12.5,0.1 v 11 c 0,11.4 -2.8,15.8 -10.7,15.8 -6.8,0 -9.1,-4.7 -9.1,-12 V 73.1 29.5 C 88.1,19.9 92,17 96.8,17 c 7.7,0 11.2,4.4 11.2,21.4 h 18.6 v -7.3 c 0,-17 -9.8,-31.2 -29.3,-31.2 C 77.9,0 68.4,13.1 68.4,29.2 v 43.9 14.7 c 0,18.1 10.7,29.2 26.2,29.2 9.1,0 13.9,-3.2 19.7,-10.1 l 3.6,8.5 h 9.5 V 73.1 57.7 h -32 v 15.4 z"
         class="st1"
         inkscape:connector-curvature="0"
         style="fill:#e80f1f" />
    </g>
  </g>
  <style
     id="style2986"
     type="text/css">
	.st0{fill:none;enable-background:new    ;}
	.st1{fill:#E80F1F;}
</style>
</svg>
