<?xml version="1.0" encoding="utf-8"?>
<!-- Generator: Adobe Illustrator 19.1.1, SVG Export Plug-In . SVG Version: 6.00 Build 0)  -->
<svg version="1.1" id="Layer_1" xmlns="http://www.w3.org/2000/svg" xmlns:xlink="http://www.w3.org/1999/xlink" x="0px" y="0px"
	 viewBox="0 0 130 140" style="enable-background:new 0 0 130 140;" xml:space="preserve">
<style type="text/css">
	.st0{fill:#ECF0F1;}
	.st1{fill:#FFFFFF;}
	.st2{fill:#2C3E50;}
</style>
<path class="st0" d="M116.1,106.6l-44.5,25.6c-4.1,2.3-9.1,2.3-13.2,0l-44.5-25.6c-4.1-2.4-6.6-6.7-6.6-11.5V44
	c0-4.7,2.5-9.1,6.6-11.5L58.4,6.9c4.1-2.3,9.1-2.3,13.2,0l44.5,25.6c4.1,2.4,6.6,6.7,6.6,11.5v51.1
	C122.8,99.8,120.2,104.2,116.1,106.6z"/>
<path class="st1" d="M111.5,103.2L71,126.5c-3.7,2.1-8.3,2.1-12,0l-40.5-23.3c-3.7-2.1-6-6.1-6-10.4V46.3c0-4.3,2.3-8.3,6-10.4
	L59,12.6c3.7-2.1,8.3-2.1,12,0l40.5,23.3c3.7,2.1,6,6.1,6,10.4v46.5C117.5,97.1,115.2,101.1,111.5,103.2z"/>
<g>
	<g>
		<polygon class="st2" points="57.9,88.5 68,53 59,53 54.8,67.6 40.1,67.6 44.3,53 35.3,53 25.1,88.5 34.1,88.5 38.1,74.7 
			52.8,74.7 48.8,88.5 		"/>
		<path class="st2" d="M104.1,70.8c3-10.5-2.6-17.7-13.8-17.7H75.1L73,60.2h15c5.7,0,8.6,4.3,6.9,10.6c-1.8,6.2-6.9,10.5-12.5,10.5
			H76l4.6-16.2h-9l-6.7,23.4h14.9C91.2,88.5,101.1,81.3,104.1,70.8z"/>
	</g>
</g>
</svg>
