<?xml version="1.0" encoding="utf-8"?>
<!-- Generator: Adobe Illustrator 19.1.1, SVG Export Plug-In . SVG Version: 6.00 Build 0)  -->
<svg version="1.1" id="Layer_1" xmlns="http://www.w3.org/2000/svg" xmlns:xlink="http://www.w3.org/1999/xlink" x="0px" y="0px"
	 viewBox="0 0 130 140" style="enable-background:new 0 0 130 140;" xml:space="preserve">
<style type="text/css">
	.st0{fill:#ECF0F1;}
	.st1{fill:#FFFFFF;}
	.st2{fill:#2C3E50;}
</style>
<path class="st0" d="M116.1,106.6l-44.5,25.6c-4.1,2.3-9.1,2.3-13.2,0l-44.5-25.6c-4.1-2.4-6.6-6.7-6.6-11.5V44
	c0-4.7,2.5-9.1,6.6-11.5L58.4,6.9c4.1-2.3,9.1-2.3,13.2,0l44.5,25.6c4.1,2.4,6.6,6.7,6.6,11.5v51.1
	C122.8,99.8,120.2,104.2,116.1,106.6z"/>
<path class="st1" d="M111.5,103.2L71,126.5c-3.7,2.1-8.3,2.1-12,0l-40.5-23.3c-3.7-2.1-6-6.1-6-10.4V46.3c0-4.3,2.3-8.3,6-10.4
	L59,12.6c3.7-2.1,8.3-2.1,12,0l40.5,23.3c3.7,2.1,6,6.1,6,10.4v46.5C117.5,97.1,115.2,101.1,111.5,103.2z"/>
<g>
	<g>
		<path class="st2" d="M79.6,35H50.4C48,35,46,37,46,39.4v56.7c0,2.4,2,4.4,4.4,4.4h29.2c2.4,0,4.4-2,4.4-4.4V39.4
			C84,37,82,35,79.6,35z M60.3,38.2h9.3c0.3,0,0.5,0.2,0.5,0.5c0,0.3-0.2,0.5-0.5,0.5h-9.3c-0.3,0-0.5-0.2-0.5-0.5
			C59.8,38.4,60,38.2,60.3,38.2z M65,98.3c-1.2,0-2.2-1-2.2-2.2c0-1.2,1-2.2,2.2-2.2s2.2,1,2.2,2.2C67.2,97.3,66.2,98.3,65,98.3z
			 M81,92.3H49V42H81V92.3z"/>
	</g>
</g>
</svg>
