<?xml version="1.0" encoding="utf-8"?>
<!-- Generator: Adobe Illustrator 19.1.1, SVG Export Plug-In . SVG Version: 6.00 Build 0)  -->
<svg version="1.1" id="Layer_1" xmlns="http://www.w3.org/2000/svg" xmlns:xlink="http://www.w3.org/1999/xlink" x="0px" y="0px"
	 viewBox="0 0 130 140" style="enable-background:new 0 0 130 140;" xml:space="preserve">
<style type="text/css">
	.st0{fill:#ECF0F1;}
	.st1{fill:#FFFFFF;}
	.st2{fill:#2C3E50;}
</style>
<path class="st0" d="M116.1,106.6l-44.5,25.6c-4.1,2.3-9.1,2.3-13.2,0l-44.5-25.6c-4.1-2.4-6.6-6.7-6.6-11.5V44
	c0-4.7,2.5-9.1,6.6-11.5L58.4,6.9c4.1-2.3,9.1-2.3,13.2,0l44.5,25.6c4.1,2.4,6.6,6.7,6.6,11.5v51.1
	C122.8,99.8,120.2,104.2,116.1,106.6z"/>
<path class="st1" d="M111.5,103.2L71,126.5c-3.7,2.1-8.3,2.1-12,0l-40.5-23.3c-3.7-2.1-6-6.1-6-10.4V46.3c0-4.3,2.3-8.3,6-10.4
	L59,12.6c3.7-2.1,8.3-2.1,12,0l40.5,23.3c3.7,2.1,6,6.1,6,10.4v46.5C117.5,97.1,115.2,101.1,111.5,103.2z"/>
<g>
	<g>
		<path class="st2" d="M33.5,37.8l5.7,64.3l25.7,7.1l25.8-7.2l5.7-64.3H33.5z M85.9,98l-20.7,5.7v0l-0.1,0l-0.1,0v0L44.3,98
			l-4.9-54.9h51.4L85.9,98z M74.7,74.8L73.8,85L65,87.4l0,0l-8.8-2.4l-0.6-6.3h-7.9l1.1,12.4L65,95.6h0h0l0,0l16.1-4.5l2.2-24.2
			H54.6l-0.7-8.1H84h0l0.7-7.9H45.2l2.1,23.8L74.7,74.8L74.7,74.8z"/>
	</g>
</g>
</svg>
