<?xml version="1.0" encoding="utf-8"?>
<!-- Generator: Adobe Illustrator 19.1.1, SVG Export Plug-In . SVG Version: 6.00 Build 0)  -->
<svg version="1.1" id="Layer_1" xmlns="http://www.w3.org/2000/svg" xmlns:xlink="http://www.w3.org/1999/xlink" x="0px" y="0px"
	 viewBox="0 0 130 140" style="enable-background:new 0 0 130 140;" xml:space="preserve">
<style type="text/css">
	.st0{fill:#ECF0F1;}
	.st1{fill:#FFFFFF;}
	.st2{fill:#2C3E50;}
</style>
<path class="st0" d="M116.1,106.6l-44.5,25.6c-4.1,2.3-9.1,2.3-13.2,0l-44.5-25.6c-4.1-2.4-6.6-6.7-6.6-11.5V44
	c0-4.7,2.5-9.1,6.6-11.5L58.4,6.9c4.1-2.3,9.1-2.3,13.2,0l44.5,25.6c4.1,2.4,6.6,6.7,6.6,11.5v51.1
	C122.8,99.8,120.2,104.2,116.1,106.6z"/>
<path class="st1" d="M111.5,103.2L71,126.5c-3.7,2.1-8.3,2.1-12,0l-40.5-23.3c-3.7-2.1-6-6.1-6-10.4V46.3c0-4.3,2.3-8.3,6-10.4
	L59,12.6c3.7-2.1,8.3-2.1,12,0l40.5,23.3c3.7,2.1,6,6.1,6,10.4v46.5C117.5,97.1,115.2,101.1,111.5,103.2z"/>
<g>
	<g>
		<g>
			<path class="st2" d="M61.1,75.2c1.3-1.1,2.4-2.3,3.4-3.7l4.3,1.8l2.8-6.8l-4.3-1.8c0.3-1.6,0.4-3.3,0.2-5l4.5-1.4l-2.2-7
				l-4.5,1.4c-0.8-1.5-1.9-2.8-3.1-4l2.5-4l-6.2-4l-2.5,4c-1.6-0.6-3.2-1-4.9-1.1l-0.6-4.6l-7.3,1l0.6,4.6c-1.6,0.6-3.1,1.4-4.5,2.3
				l-3.5-3.2l-5,5.5l3.5,3.2c-0.9,1.4-1.5,3-1.9,4.7l-4.7-0.2l-0.3,7.4l4.7,0.2c0.3,1.7,0.8,3.3,1.5,4.8L29.8,72l4.5,5.9l3.7-2.9
				c1.3,1.1,2.7,2,4.3,2.7l-1,4.6l7.2,1.6l1-4.6c0.8,0,1.7,0,2.5-0.2c0.8-0.1,1.7-0.3,2.5-0.5l2.2,4.1l6.6-3.4L61.1,75.2z
				 M50.9,70.7c-5.2,0.7-9.9-3-10.6-8.1c-0.7-5.2,3-9.9,8.1-10.6c5.2-0.7,9.9,3,10.6,8.1C59.7,65.2,56.1,70,50.9,70.7z"/>
			<path class="st2" d="M93.3,76.5l-3,1.4c-0.7-1-1.6-1.8-2.6-2.5l1.4-3.1l-4.8-2.2l-1.4,3c-1.2-0.3-2.4-0.4-3.6-0.3l-0.9-3.2
				l-5.1,1.4l0.9,3.2c-1.1,0.6-2.1,1.3-2.9,2.1l-2.8-1.9l-3,4.4l2.8,1.9c-0.5,1.1-0.8,2.3-0.9,3.5L64,84.6l0.5,5.3l3.3-0.3
				c0.4,1.2,0.9,2.3,1.6,3.3L67,95.2l3.8,3.7l2.4-2.4c1,0.6,2.1,1.2,3.3,1.5l-0.3,3.3l5.3,0.4l0.3-3.3c0.6-0.1,1.2-0.2,1.8-0.4
				c0.6-0.2,1.2-0.4,1.7-0.6l1.9,2.7l4.3-3.1l-1.9-2.7c0.8-0.9,1.5-1.9,2-3l3.2,0.8l1.3-5.1l-3.2-0.8c0.1-1.2-0.1-2.4-0.3-3.6l3-1.4
				L93.3,76.5z M81.9,92.2c-3.6,1-7.3-1.1-8.3-4.7c-1-3.6,1.1-7.3,4.7-8.3c3.6-1,7.3,1.1,8.3,4.7C87.6,87.5,85.5,91.2,81.9,92.2z"/>
			<path class="st2" d="M97.9,57.3l-0.4-4.2l-2.6,0.3c-0.3-0.9-0.7-1.8-1.2-2.6l1.8-1.9l-3-2.9L90.6,48c-0.8-0.5-1.7-0.9-2.6-1.2
				l0.2-2.6l-4.2-0.3l-0.2,2.6c-0.9,0.1-1.9,0.4-2.7,0.8l-1.5-2.1l-3.4,2.4l1.5,2.1c-0.7,0.7-1.2,1.5-1.6,2.4l-2.6-0.6l-1,4.1
				l2.6,0.6c0,0.9,0.1,1.9,0.3,2.8L73,60.2l1.8,3.8l2.4-1.2c0.6,0.8,1.3,1.4,2,2l-1.1,2.4l3.8,1.7l1.1-2.4c0.9,0.2,1.9,0.3,2.8,0.2
				l0.7,2.5l4-1.1L90,65.5c0.4-0.2,0.8-0.5,1.2-0.8c0.4-0.3,0.8-0.6,1.1-0.9l2.2,1.5l2.3-3.5l-2.2-1.5c0.4-0.9,0.6-1.8,0.7-2.8
				L97.9,57.3z M88.4,60.9c-2.4,1.7-5.7,1.2-7.4-1.2c-1.7-2.4-1.2-5.7,1.2-7.4c2.4-1.7,5.7-1.2,7.4,1.2
				C91.3,55.8,90.7,59.2,88.4,60.9z"/>
		</g>
	</g>
</g>
</svg>
